<?xml version="1.0" encoding="UTF-8"?>
<!DOCTYPE svg PUBLIC "-//W3C//DTD SVG 1.1//EN" "http://www.w3.org/Graphics/SVG/1.1/DTD/svg11.dtd">
<!-- Creator: CorelDRAW 2021 (64-Bit) -->
<?xml-stylesheet href="tgc-logo.css" type="text/css"?>
<svg xmlns="http://www.w3.org/2000/svg" xml:space="preserve" width="120px" height="119px" version="1.1" style="shape-rendering:geometricPrecision; text-rendering:geometricPrecision; image-rendering:optimizeQuality; fill-rule:evenodd; clip-rule:evenodd"
viewBox="0 0 119.799 119.025"
 xmlns:xlink="http://www.w3.org/1999/xlink"
 xmlns:xodm="http://www.corel.com/coreldraw/odm/2003">
 <g id="Layer_x0020_1">
  <metadata id="CorelCorpID_0Corel-Layer"/>
  <g id="_1965310062096">
   <path class="fil0" d="M108.622 95.017c0.06,0.025 0.127,0.078 0.182,0.114l0.019 0.17c-0.416,1.189 -2.788,3.661 -3.745,4.471l-0.129 -0.014c-0.022,-0.097 -0.021,-0.165 0.002,-0.262 0.426,-1.822 2.113,-3.544 3.671,-4.479z"/>
   <path class="fil0" d="M100.04 104.151c0.201,0.003 0.26,-0.047 0.406,0.102 -0.005,0.027 -0.007,0.054 -0.015,0.08 -0.279,0.896 -4.744,3.783 -5.751,4.409 -0.163,0.067 -0.075,0.05 -0.267,0.038 -0.066,-0.205 0.035,-0.397 0.129,-0.588 0.934,-1.896 3.589,-3.38 5.498,-4.041z"/>
   <path class="fil0" d="M34.277 102.873c0.316,-0.005 0.677,0.021 0.976,0.126 0.499,0.177 0.967,0.572 1.19,1.056 0.138,0.3 0.183,0.652 0.044,0.96 -0.206,0.453 -0.603,0.619 -1.046,0.77 -0.451,-0.015 -0.848,-0.043 -1.253,-0.26 -0.499,-0.267 -0.929,-0.721 -1.068,-1.281 -0.068,-0.277 -0.052,-0.55 0.111,-0.791 0.245,-0.361 0.637,-0.501 1.046,-0.58z"/>
   <path class="fil0" d="M35.045 14.257c0.408,-0.029 0.803,-0.069 1.19,0.101 0.323,0.142 0.584,0.393 0.701,0.73 0.124,0.354 0.07,0.767 -0.098,1.097 -0.3,0.591 -0.79,0.83 -1.386,1.032 -0.366,0.041 -0.694,0.063 -1.045,-0.068 -0.367,-0.137 -0.663,-0.392 -0.807,-0.762 -0.147,-0.379 -0.107,-0.809 0.078,-1.167 0.296,-0.574 0.774,-0.792 1.367,-0.963z"/>
   <path class="fil0" d="M105.694 19.895c0.252,0.112 0.442,0.321 0.632,0.514 0.765,0.778 3.857,4.138 3.847,5.041 -0.26,0.03 -0.519,0.044 -0.777,-0.014 -1.097,-0.249 -2.125,-1.297 -2.71,-2.212 -0.558,-0.874 -1.226,-2.275 -0.992,-3.329z"/>
   <path class="fil0" d="M57.702 105.063c0.416,-0.04 0.861,-0.076 1.263,0.062 0.474,0.163 0.893,0.49 1.088,0.96 0.019,0.044 0.036,0.09 0.05,0.136 0.014,0.046 0.026,0.093 0.036,0.14 0.009,0.047 0.017,0.095 0.021,0.143 0.005,0.048 0.007,0.096 0.007,0.145 0,0.048 -0.003,0.096 -0.007,0.144 -0.006,0.048 -0.013,0.096 -0.023,0.143 -0.01,0.047 -0.022,0.094 -0.036,0.14 -0.015,0.046 -0.032,0.091 -0.051,0.136 -0.251,0.584 -0.785,0.869 -1.347,1.086 -0.528,0.039 -1.012,0.06 -1.504,-0.175 -0.412,-0.197 -0.75,-0.535 -0.898,-0.972 -0.126,-0.371 -0.113,-0.772 0.065,-1.125 0.272,-0.541 0.786,-0.791 1.336,-0.963z"/>
   <path class="fil0" d="M94.999 10.344c1.301,0.376 3.937,2.537 5.047,3.494 0.435,0.375 1.204,0.917 1.247,1.509 -0.228,0.052 -0.463,0.076 -0.698,0.051 -1.762,-0.186 -3.752,-1.586 -4.805,-2.966 -0.442,-0.58 -0.891,-1.338 -0.791,-2.088z"/>
   <path class="fil0" d="M58.112 12.07c0.437,-0.024 0.858,0.01 1.251,0.221 0.417,0.224 0.736,0.592 0.866,1.05 0.014,0.05 0.026,0.1 0.035,0.151 0.009,0.051 0.016,0.102 0.02,0.154 0.004,0.051 0.006,0.103 0.005,0.154 -0.002,0.052 -0.005,0.104 -0.011,0.155 -0.006,0.051 -0.015,0.102 -0.026,0.153 -0.012,0.05 -0.025,0.1 -0.041,0.149 -0.016,0.049 -0.035,0.097 -0.056,0.145 -0.021,0.047 -0.044,0.093 -0.069,0.138 -0.315,0.555 -0.81,0.768 -1.397,0.938 -0.581,0.017 -1.076,0.01 -1.58,-0.315 -0.384,-0.249 -0.665,-0.633 -0.752,-1.085 -0.078,-0.41 0.002,-0.831 0.239,-1.176 0.361,-0.525 0.919,-0.715 1.516,-0.832z"/>
   <path class="fil0" d="M45.235 94.609c0.462,-0.038 0.9,-0.084 1.345,0.085 0.491,0.186 0.908,0.548 1.12,1.032 0.181,0.412 0.202,0.897 0.018,1.311 -0.255,0.575 -0.718,0.836 -1.282,1.049 -0.443,0.077 -0.87,0.114 -1.304,-0.034 -0.488,-0.167 -0.898,-0.517 -1.112,-0.99 -0.193,-0.424 -0.22,-0.915 -0.049,-1.351 0.238,-0.602 0.699,-0.862 1.264,-1.102z"/>
   <path class="fil0" d="M45.252 83.545c0.423,-0.027 0.826,-0.053 1.229,0.102 0.505,0.194 0.913,0.556 1.125,1.058 0.025,0.057 0.046,0.115 0.064,0.174 0.019,0.059 0.034,0.119 0.046,0.18 0.012,0.061 0.021,0.122 0.027,0.184 0.006,0.062 0.009,0.123 0.009,0.185 -0.001,0.062 -0.004,0.124 -0.011,0.186 -0.007,0.062 -0.017,0.123 -0.03,0.183 -0.013,0.061 -0.029,0.121 -0.048,0.18 -0.019,0.059 -0.041,0.117 -0.066,0.173 -0.266,0.59 -0.749,0.859 -1.328,1.08 -0.443,0.053 -0.884,0.062 -1.303,-0.117 -0.496,-0.212 -0.897,-0.605 -1.09,-1.113 -0.177,-0.469 -0.164,-1.003 0.064,-1.451 0.28,-0.553 0.75,-0.806 1.312,-1.004z"/>
   <path class="fil0" d="M45.751 34.431c0.372,-0.015 0.77,0.049 1.111,0.204 0.058,0.026 0.115,0.055 0.17,0.087 0.056,0.032 0.109,0.067 0.161,0.104 0.052,0.038 0.101,0.078 0.149,0.121 0.047,0.043 0.092,0.089 0.135,0.137 0.042,0.047 0.082,0.097 0.12,0.149 0.037,0.052 0.071,0.106 0.103,0.162 0.031,0.056 0.06,0.113 0.085,0.172 0.026,0.058 0.048,0.118 0.067,0.179 0.155,0.496 0.104,1.062 -0.157,1.514 -0.364,0.631 -0.883,0.851 -1.553,1.017 -0.472,0.013 -0.906,-0.04 -1.317,-0.289 -0.455,-0.275 -0.786,-0.713 -0.899,-1.235 -0.014,-0.063 -0.025,-0.127 -0.032,-0.192 -0.007,-0.064 -0.011,-0.129 -0.012,-0.194 0,-0.065 0.002,-0.129 0.009,-0.194 0.006,-0.065 0.015,-0.129 0.028,-0.192 0.013,-0.064 0.029,-0.127 0.049,-0.189 0.019,-0.061 0.041,-0.122 0.067,-0.182 0.026,-0.059 0.055,-0.117 0.086,-0.174 0.032,-0.056 0.067,-0.111 0.104,-0.164 0.38,-0.533 0.908,-0.725 1.526,-0.841z"/>
   <path class="fil0" d="M57.919 22.671c0.47,-0.056 0.898,-0.06 1.338,0.141 0.526,0.24 0.934,0.663 1.113,1.218 0.019,0.059 0.035,0.119 0.048,0.18 0.014,0.061 0.024,0.123 0.03,0.185 0.007,0.062 0.011,0.124 0.011,0.187 0.001,0.062 -0.002,0.124 -0.008,0.186 -0.006,0.062 -0.015,0.124 -0.027,0.185 -0.012,0.061 -0.028,0.122 -0.046,0.182 -0.019,0.059 -0.04,0.117 -0.065,0.175 -0.024,0.057 -0.052,0.113 -0.082,0.168 -0.318,0.563 -0.809,0.797 -1.405,0.97 -0.471,0.055 -0.936,0.033 -1.374,-0.167 -0.482,-0.22 -0.862,-0.618 -1.034,-1.122 -0.021,-0.06 -0.038,-0.12 -0.052,-0.182 -0.015,-0.061 -0.026,-0.123 -0.034,-0.186 -0.008,-0.062 -0.013,-0.125 -0.014,-0.188 -0.002,-0.063 0,-0.126 0.005,-0.188 0.004,-0.063 0.012,-0.126 0.024,-0.188 0.011,-0.062 0.025,-0.123 0.043,-0.184 0.017,-0.06 0.037,-0.12 0.061,-0.178 0.023,-0.059 0.05,-0.116 0.079,-0.172 0.305,-0.57 0.795,-0.83 1.389,-1.022z"/>
   <path class="fil0" d="M57.939 33.963c0.46,-0.03 0.886,-0.02 1.317,0.165 0.527,0.225 0.958,0.656 1.143,1.202 0.167,0.488 0.138,1.037 -0.108,1.494 -0.323,0.602 -0.85,0.858 -1.467,1.062 -0.549,0.034 -1.034,0.034 -1.529,-0.237 -0.057,-0.031 -0.113,-0.065 -0.167,-0.101 -0.054,-0.037 -0.106,-0.076 -0.156,-0.118 -0.05,-0.042 -0.098,-0.086 -0.144,-0.132 -0.046,-0.047 -0.089,-0.096 -0.129,-0.147 -0.041,-0.051 -0.079,-0.103 -0.115,-0.158 -0.035,-0.055 -0.068,-0.111 -0.098,-0.169 -0.029,-0.058 -0.056,-0.118 -0.08,-0.179 -0.024,-0.06 -0.045,-0.122 -0.062,-0.185 -0.142,-0.505 -0.09,-1.071 0.176,-1.527 0.325,-0.558 0.821,-0.797 1.419,-0.97z"/>
   <path class="fil0" d="M58.025 45.643c0.524,-0.028 0.965,-0.011 1.433,0.251 0.058,0.032 0.114,0.067 0.169,0.105 0.054,0.038 0.106,0.079 0.156,0.122 0.051,0.043 0.099,0.088 0.144,0.136 0.046,0.048 0.089,0.098 0.13,0.151 0.041,0.052 0.078,0.106 0.114,0.162 0.035,0.056 0.067,0.114 0.097,0.173 0.029,0.06 0.055,0.12 0.079,0.182 0.023,0.062 0.043,0.125 0.06,0.189 0.135,0.504 0.071,1.07 -0.196,1.52 -0.36,0.606 -0.886,0.846 -1.546,0.999 -0.448,0.025 -0.873,0.001 -1.287,-0.189 -0.516,-0.237 -0.913,-0.673 -1.081,-1.217 -0.019,-0.063 -0.036,-0.127 -0.049,-0.191 -0.013,-0.065 -0.023,-0.13 -0.029,-0.196 -0.007,-0.065 -0.01,-0.131 -0.01,-0.197 0,-0.066 0.004,-0.132 0.011,-0.198 0.006,-0.065 0.016,-0.13 0.03,-0.195 0.013,-0.064 0.029,-0.128 0.049,-0.191 0.02,-0.063 0.043,-0.125 0.069,-0.186 0.026,-0.06 0.055,-0.12 0.087,-0.177 0.353,-0.628 0.907,-0.877 1.57,-1.053z"/>
   <path class="fil0" d="M70.685 46.324c0.439,-0.018 0.835,-0.023 1.252,0.144 0.528,0.211 0.959,0.616 1.175,1.145 0.026,0.066 0.05,0.133 0.07,0.201 0.02,0.068 0.036,0.137 0.048,0.206 0.013,0.07 0.022,0.14 0.028,0.211 0.005,0.071 0.007,0.141 0.005,0.212 -0.002,0.071 -0.007,0.141 -0.017,0.212 -0.009,0.07 -0.022,0.139 -0.038,0.208 -0.016,0.069 -0.036,0.137 -0.06,0.204 -0.023,0.067 -0.05,0.132 -0.08,0.196 -0.321,0.666 -0.865,0.953 -1.53,1.182 -0.478,0.057 -0.999,0.003 -1.437,-0.204 -0.065,-0.031 -0.129,-0.065 -0.191,-0.102 -0.062,-0.038 -0.122,-0.078 -0.179,-0.122 -0.058,-0.044 -0.113,-0.09 -0.166,-0.139 -0.053,-0.05 -0.103,-0.102 -0.151,-0.156 -0.047,-0.055 -0.092,-0.112 -0.133,-0.171 -0.042,-0.059 -0.08,-0.12 -0.115,-0.183 -0.035,-0.064 -0.067,-0.128 -0.096,-0.195 -0.028,-0.066 -0.053,-0.134 -0.075,-0.203 -0.166,-0.538 -0.119,-1.151 0.167,-1.641 0.344,-0.589 0.882,-0.853 1.523,-1.005z"/>
   <path class="fil0" d="M111.82 86.802c0.283,-0.033 0.709,-0.107 0.977,-0.02 0.22,0.072 0.388,0.2 0.483,0.415 0.156,0.351 0.036,0.78 -0.08,1.122 -0.684,2.013 -2.494,4.867 -4.458,5.852 -0.02,0.006 -0.039,0.011 -0.059,0.016 -0.351,0.089 -0.681,0.192 -1.011,-0.027 -0.255,-0.168 -0.398,-0.455 -0.458,-0.746 -0.281,-1.351 0.478,-3.277 1.233,-4.379 0.84,-1.228 1.908,-1.957 3.373,-2.233z"/>
   <path class="fil0" d="M92.57 107.2c0.198,-0.024 0.396,-0.034 0.596,-0.028 0.266,0.009 0.378,0.084 0.551,0.279 0.144,0.584 -0.054,1.143 -0.348,1.648 -1.314,2.254 -4.356,3.485 -6.75,4.118 -0.342,0.036 -0.733,0.095 -1.022,-0.139 -0.168,-0.135 -0.246,-0.335 -0.272,-0.543 -0.097,-0.76 0.412,-1.73 0.857,-2.332 1.349,-1.825 4.255,-2.683 6.388,-3.003z"/>
   <path class="fil0" d="M108.933 26.47c0.484,0 0.973,0.052 1.413,0.267 1.307,0.64 2.871,3.72 3.307,5.09 0.159,0.501 0.373,1.291 0.068,1.763 -0.23,0.356 -0.672,0.381 -1.05,0.432 -1.005,-0.065 -1.975,-0.159 -2.853,-0.7 -1.095,-0.674 -1.678,-1.901 -1.979,-3.108 -0.246,-0.983 -0.449,-2.291 0.131,-3.19 0.24,-0.372 0.548,-0.469 0.963,-0.554z"/>
   <path class="fil0" d="M13.35 93.784c0.843,0.019 1.595,0.201 2.355,0.565 1.568,0.749 3.021,2.105 3.606,3.77 0.226,0.644 0.423,1.524 0.086,2.155 -0.249,0.466 -0.582,0.662 -1.073,0.808 -0.782,0.003 -1.411,-0.226 -2.07,-0.631 -1.645,-1.01 -3.671,-3.009 -4.087,-4.971 -0.084,-0.398 -0.092,-0.812 0.146,-1.159 0.259,-0.377 0.607,-0.471 1.037,-0.537z"/>
   <path class="fil0" d="M103.254 97.269c0.348,-0.046 0.817,-0.097 1.132,0.094 0.19,0.116 0.307,0.263 0.362,0.478 0.19,0.735 -0.38,1.879 -0.755,2.506 -1.239,2.07 -3.356,3.343 -5.656,3.913 -0.418,0.047 -0.832,0.063 -1.189,-0.199 -0.25,-0.184 -0.382,-0.447 -0.428,-0.75 -0.144,-0.967 0.402,-2.225 0.955,-2.999 1.286,-1.799 3.467,-2.695 5.579,-3.043z"/>
   <path class="fil0" d="M86.514 5.92c1.012,-0.032 1.907,0.226 2.836,0.616 1.906,0.8 3.943,2.086 4.743,4.089 0.195,0.489 0.375,1.069 0.138,1.573 -0.16,0.339 -0.369,0.479 -0.715,0.598 -0.31,0.02 -0.621,0.02 -0.931,-0.001 -0.311,-0.021 -0.618,-0.062 -0.923,-0.124 -1.922,-0.375 -3.95,-1.386 -5.062,-3.054 -0.49,-0.736 -0.974,-1.923 -0.77,-2.805 0.1,-0.433 0.309,-0.672 0.684,-0.892z"/>
   <path class="fil0" d="M18.058 17.753c0.376,-0.028 0.727,0.043 1.056,0.231 0.376,0.214 0.61,0.537 0.712,0.957 0.261,1.074 -0.113,2.279 -0.694,3.186 -1.062,1.657 -2.767,2.702 -4.66,3.127 -0.565,0.017 -1.05,-0.02 -1.526,-0.361 -0.302,-0.215 -0.481,-0.529 -0.537,-0.894 -0.167,-1.081 0.493,-2.286 1.111,-3.128 1.08,-1.472 2.691,-2.833 4.538,-3.118z"/>
   <path class="fil0" d="M70.491 57.398c1.069,-0.13 2.208,0.028 3.135,0.598 0.763,0.47 1.324,1.198 1.505,2.084 0.16,0.784 0.015,1.63 -0.435,2.296 -0.618,0.914 -1.583,1.289 -2.619,1.488 -1.113,0.112 -2.279,-0.017 -3.239,-0.634 -0.741,-0.476 -1.288,-1.23 -1.45,-2.103 -0.145,-0.785 0.018,-1.634 0.482,-2.288 0.621,-0.877 1.598,-1.279 2.621,-1.441z"/>
   <path class="fil0" d="M114.239 77.789c0.485,-0.043 1.037,-0.025 1.477,0.198 0.416,0.211 0.686,0.563 0.806,1.01 0.325,1.214 -0.215,2.85 -0.84,3.892 -0.883,1.471 -2.231,2.395 -3.876,2.818 -0.613,0.095 -1.193,0.13 -1.723,-0.252 -0.393,-0.283 -0.592,-0.731 -0.669,-1.198 -0.246,-1.503 0.39,-3.294 1.294,-4.483 0.886,-1.166 2.094,-1.794 3.531,-1.985z"/>
   <path class="fil0" d="M98.548 15.778c1.114,-0.047 2.169,0.252 3.154,0.767 1.544,0.807 2.793,2.116 3.317,3.798 0.223,0.716 0.44,1.673 0.043,2.358 -0.236,0.408 -0.548,0.532 -0.989,0.637 -1.214,0.044 -2.473,-0.192 -3.564,-0.733 -1.435,-0.711 -2.48,-1.898 -2.981,-3.421 -0.263,-0.802 -0.456,-1.879 -0.03,-2.648 0.248,-0.45 0.577,-0.611 1.05,-0.758z"/>
   <path class="fil0" d="M82.158 109.858c0.599,-0.088 1.409,-0.128 1.927,0.23 0.291,0.201 0.46,0.503 0.512,0.85 0.135,0.905 -0.336,2.072 -0.883,2.782 -1.309,1.699 -3.777,2.326 -5.796,2.591 -0.583,0.1 -1.325,0.113 -1.816,-0.257 -0.338,-0.254 -0.513,-0.642 -0.57,-1.052 -0.136,-0.988 0.231,-2.199 0.844,-2.968 1.219,-1.529 3.975,-1.949 5.782,-2.176z"/>
   <path class="fil0" d="M111.889 35.347c1.093,0.048 2.014,0.279 2.863,1.016 1.231,1.069 1.926,2.822 2.034,4.425 0.047,0.695 -0.026,1.457 -0.522,1.991 -0.457,0.491 -0.984,0.562 -1.617,0.587 -1.078,-0.026 -2.017,-0.288 -2.894,-0.933 -1.158,-0.851 -1.821,-2.159 -2.023,-3.564 -0.13,-0.907 -0.151,-1.988 0.451,-2.739 0.457,-0.57 1.02,-0.712 1.708,-0.783z"/>
   <path class="fil0" d="M22.438 102.116c0.95,-0.058 1.884,0.154 2.777,0.462 1.784,0.615 3.68,1.721 4.521,3.491 0.359,0.756 0.599,1.844 0.287,2.647 -0.189,0.485 -0.539,0.705 -0.994,0.912 -1.253,0.189 -2.503,-0.326 -3.587,-0.912 -1.704,-0.921 -3.52,-2.393 -4.082,-4.329 -0.146,-0.503 -0.248,-1.088 0.038,-1.562 0.25,-0.412 0.585,-0.596 1.04,-0.709z"/>
   <path class="fil0" d="M104.786 46.415c1.243,-0.103 2.636,0.118 3.69,0.818 0.737,0.489 1.293,1.219 1.45,2.101 0.128,0.717 -0.006,1.482 -0.438,2.077 -0.662,0.912 -1.743,1.178 -2.794,1.337 -1.427,0.033 -2.845,0.013 -4.037,-0.893 -0.701,-0.533 -1.179,-1.326 -1.271,-2.206 -0.074,-0.718 0.125,-1.43 0.59,-1.987 0.715,-0.857 1.749,-1.133 2.81,-1.247z"/>
   <path class="fil0" d="M93.635 99.929c0.557,-0.097 1.326,-0.113 1.821,0.184 0.339,0.204 0.542,0.531 0.621,0.914 0.222,1.077 -0.317,2.556 -0.937,3.434 -1.211,1.716 -3.274,2.425 -5.255,2.776 -0.696,0.09 -1.445,0.136 -2.043,-0.301 -0.39,-0.284 -0.592,-0.712 -0.651,-1.183 -0.144,-1.144 0.308,-2.531 1.028,-3.407 1.287,-1.566 3.481,-2.204 5.416,-2.417z"/>
   <path class="fil0" d="M33.001 108.098c0.211,-0.012 0.422,-0.016 0.633,-0.015 0.211,0.002 0.422,0.011 0.632,0.026 0.211,0.015 0.421,0.037 0.63,0.065 0.209,0.028 0.417,0.063 0.624,0.105 0.207,0.041 0.412,0.089 0.616,0.143 0.204,0.055 0.406,0.116 0.606,0.183 0.2,0.067 0.398,0.14 0.594,0.22 0.195,0.079 0.388,0.165 0.578,0.256 1.32,0.643 2.505,1.657 2.978,3.085 0.229,0.691 0.366,1.597 0.007,2.261 -0.256,0.473 -0.597,0.663 -1.094,0.818 -1.654,0.148 -3.353,-0.424 -4.813,-1.158 -1.399,-0.703 -2.694,-1.709 -3.183,-3.258 -0.19,-0.6 -0.332,-1.34 -0.002,-1.919 0.276,-0.484 0.678,-0.671 1.194,-0.812z"/>
   <path class="fil0" d="M46.748 11.777c0.913,-0.08 1.977,0.05 2.741,0.584 0.608,0.424 0.968,1.069 1.079,1.796 0.147,0.96 -0.131,1.953 -0.709,2.727 -0.918,1.231 -2.25,1.671 -3.701,1.91 -1.091,0.044 -2.173,0.039 -3.088,-0.665 -0.607,-0.467 -0.95,-1.154 -1.033,-1.909 -0.007,-0.059 -0.012,-0.118 -0.015,-0.178 -0.004,-0.059 -0.006,-0.118 -0.006,-0.178 -0.001,-0.059 0,-0.118 0.003,-0.178 0.002,-0.059 0.006,-0.118 0.011,-0.177 0.006,-0.059 0.013,-0.118 0.021,-0.177 0.008,-0.059 0.018,-0.117 0.03,-0.176 0.011,-0.058 0.024,-0.116 0.038,-0.173 0.014,-0.058 0.03,-0.115 0.047,-0.172 0.017,-0.057 0.036,-0.113 0.056,-0.169 0.02,-0.056 0.041,-0.111 0.064,-0.166 0.022,-0.055 0.047,-0.109 0.072,-0.163 0.025,-0.054 0.052,-0.107 0.081,-0.159 0.028,-0.052 0.057,-0.104 0.088,-0.154 0.031,-0.051 0.063,-0.101 0.096,-0.15 0.033,-0.049 0.068,-0.098 0.103,-0.145 0.036,-0.048 0.073,-0.094 0.111,-0.14 0.977,-1.194 2.429,-1.651 3.911,-1.788z"/>
   <path class="fil0" d="M21.07 89.982c1.574,-0.142 3.186,0.168 4.543,0.995 1.122,0.683 1.968,1.69 2.261,2.995 0.172,0.765 0.172,1.662 -0.282,2.335 -0.412,0.611 -0.982,0.849 -1.671,1.001 -0.183,0.017 -0.367,0.027 -0.55,0.03 -0.184,0.004 -0.367,0 -0.551,-0.009 -0.183,-0.01 -0.366,-0.027 -0.548,-0.05 -0.182,-0.023 -0.364,-0.053 -0.544,-0.089 -0.18,-0.037 -0.358,-0.08 -0.535,-0.129 -0.177,-0.049 -0.352,-0.105 -0.525,-0.167 -0.173,-0.062 -0.343,-0.13 -0.511,-0.205 -0.168,-0.074 -0.333,-0.155 -0.495,-0.241 -1.179,-0.641 -2.108,-1.679 -2.49,-2.978 -0.224,-0.763 -0.288,-1.683 0.128,-2.391 0.403,-0.689 1.04,-0.92 1.77,-1.097z"/>
   <path class="fil0" d="M100.861 24.267c1.312,-0.101 2.659,0.141 3.795,0.826 1.179,0.709 1.898,1.846 2.219,3.165 0.226,0.93 0.375,2.267 -0.17,3.106 -0.37,0.569 -0.85,0.746 -1.477,0.893 -1.296,0.1 -2.624,-0.114 -3.768,-0.754 -1.176,-0.657 -1.954,-1.704 -2.318,-2.993 -0.276,-0.98 -0.385,-2.335 0.161,-3.235 0.376,-0.62 0.889,-0.838 1.558,-1.008z"/>
   <path class="fil0" d="M104.326 88.634c0.587,-0.076 1.264,-0.081 1.781,0.245 0.443,0.279 0.685,0.736 0.773,1.241 0.231,1.332 -0.247,2.997 -1.008,4.096 -1.08,1.557 -2.683,2.254 -4.498,2.57 -0.635,0.053 -1.428,0.12 -1.961,-0.29 -0.438,-0.337 -0.655,-0.85 -0.721,-1.388 -0.177,-1.457 0.335,-3.282 1.238,-4.438 1.05,-1.345 2.773,-1.835 4.396,-2.036z"/>
   <path class="fil0" d="M28.207 9.344c0.579,-0.048 1.138,-0.027 1.639,0.302 0.46,0.302 0.704,0.789 0.804,1.318 0.223,1.189 -0.133,2.457 -0.826,3.431 -1.266,1.781 -3.446,2.68 -5.53,3.037 -0.724,0.024 -1.409,0.02 -2.017,-0.444 -0.383,-0.291 -0.6,-0.711 -0.665,-1.183 -0.157,-1.148 0.331,-2.396 1.011,-3.302 1.29,-1.718 3.483,-2.855 5.584,-3.159z"/>
   <path class="fil0" d="M77.676 2.679c1.661,-0.032 3.485,0.406 4.898,1.294 1.098,0.689 1.826,1.64 2.116,2.92 0.175,0.772 0.264,1.73 -0.203,2.415 -0.379,0.556 -0.854,0.718 -1.479,0.841 -1.877,0.068 -3.889,-0.12 -5.472,-1.235 -0.998,-0.703 -1.573,-1.726 -1.77,-2.916 -0.139,-0.84 -0.151,-1.869 0.387,-2.576 0.412,-0.542 0.875,-0.672 1.523,-0.743z"/>
   <path class="fil0" d="M83.689 56.869c0.781,-0.014 1.509,0.123 2.186,0.535 0.981,0.596 1.624,1.611 1.864,2.721 0.272,1.264 0.073,2.659 -0.658,3.739 -0.672,0.992 -1.594,1.48 -2.744,1.698 -0.928,0.034 -1.744,-0.068 -2.532,-0.611 -0.949,-0.654 -1.531,-1.688 -1.723,-2.81 -0.218,-1.273 0.017,-2.67 0.801,-3.717 0.698,-0.933 1.672,-1.411 2.806,-1.555z"/>
   <path class="fil0" d="M24.307 22.235c1.018,-0.135 2.263,-0.089 3.105,0.559 0.598,0.46 0.907,1.143 0.996,1.88 0.009,0.069 0.016,0.139 0.021,0.208 0.004,0.07 0.008,0.14 0.009,0.21 0.002,0.07 0.002,0.14 0,0.21 -0.002,0.07 -0.006,0.14 -0.012,0.209 -0.005,0.07 -0.012,0.14 -0.021,0.209 -0.009,0.069 -0.02,0.139 -0.033,0.207 -0.012,0.069 -0.026,0.138 -0.042,0.206 -0.016,0.068 -0.033,0.136 -0.053,0.203 -0.019,0.067 -0.04,0.134 -0.062,0.2 -0.023,0.067 -0.047,0.132 -0.073,0.197 -0.026,0.065 -0.053,0.13 -0.082,0.193 -0.029,0.064 -0.06,0.127 -0.092,0.189 -0.032,0.062 -0.066,0.123 -0.101,0.184 -0.035,0.06 -0.072,0.12 -0.111,0.178 -0.038,0.059 -0.077,0.116 -0.119,0.173 -0.041,0.057 -0.083,0.112 -0.127,0.167 -0.971,1.209 -2.408,1.731 -3.905,1.918 -1.008,0.125 -2.24,0.04 -3.084,-0.569 -0.606,-0.436 -0.946,-1.106 -1.037,-1.839 -0.134,-1.084 0.152,-2.229 0.819,-3.099 0.97,-1.262 2.476,-1.799 4.004,-1.993z"/>
   <path class="fil0" d="M43.836 102.496c1.564,-0.072 3.201,0.102 4.575,0.914 0.994,0.588 1.753,1.472 2.016,2.617 0.203,0.878 0.172,1.948 -0.352,2.712 -0.49,0.715 -1.213,0.989 -2.028,1.134 -1.589,0.159 -3.602,-0.264 -4.933,-1.17 -0.939,-0.64 -1.643,-1.586 -1.829,-2.727 -0.134,-0.823 -0.066,-1.746 0.454,-2.43 0.528,-0.693 1.279,-0.917 2.097,-1.05z"/>
   <path class="fil0" d="M79.73 11.848c1.482,-0.16 3.247,0.339 4.452,1.205 0.976,0.702 1.645,1.678 1.827,2.884 0.128,0.85 0.042,1.786 -0.497,2.487 -0.55,0.715 -1.299,0.924 -2.15,1.026 -1.483,0.14 -3.186,-0.156 -4.431,-1.009 -1.013,-0.693 -1.725,-1.747 -1.928,-2.965 -0.143,-0.857 -0.074,-1.823 0.46,-2.54 0.558,-0.748 1.388,-0.98 2.267,-1.088z"/>
   <path class="fil0" d="M37.955 3.812c0.742,-0.109 1.635,-0.139 2.275,0.309 0.502,0.352 0.76,0.905 0.846,1.5 0.17,1.167 -0.11,2.48 -0.819,3.425 -1.213,1.617 -3.412,2.18 -5.315,2.425 -0.776,0.081 -1.636,0.086 -2.304,-0.375 -0.49,-0.339 -0.757,-0.861 -0.845,-1.441 -0.169,-1.106 0.137,-2.328 0.804,-3.219 1.2,-1.603 3.462,-2.333 5.358,-2.624z"/>
   <path class="fil0" d="M89.617 13.134c1.603,-0.091 3.47,0.422 4.771,1.372 1.173,0.856 1.723,2.102 1.923,3.505 0.118,0.834 0.153,1.844 -0.397,2.539 -0.372,0.472 -0.824,0.594 -1.396,0.677 -1.716,0.083 -3.556,-0.174 -4.998,-1.177 -1.131,-0.786 -1.787,-1.944 -2.01,-3.293 -0.152,-0.917 -0.149,-2.021 0.439,-2.791 0.449,-0.586 0.971,-0.747 1.668,-0.832z"/>
   <path class="fil0" d="M44.045 110.6c1.866,-0.141 4.161,0.14 5.838,1.012 0.936,0.487 1.553,1.197 1.865,2.213 0.287,0.932 0.398,2.22 -0.094,3.093 -0.309,0.549 -0.7,0.748 -1.285,0.926 -1.803,0.35 -4.853,-0.248 -6.424,-1.199 -0.846,-0.512 -1.329,-1.224 -1.551,-2.186 -0.21,-0.907 -0.294,-2.224 0.229,-3.029 0.363,-0.559 0.788,-0.711 1.422,-0.83z"/>
   <path class="fil0" d="M69.344 111.3c1.145,-0.149 3.055,-0.162 4.029,0.54 0.518,0.372 0.773,0.942 0.863,1.56 0.152,1.045 -0.031,2.405 -0.692,3.246 -0.949,1.207 -2.703,1.415 -4.118,1.591 -1.217,0.07 -3.044,0.29 -4.05,-0.531 -0.499,-0.407 -0.72,-1.04 -0.793,-1.66 -0.138,-1.154 0.096,-2.483 0.855,-3.391 0.909,-1.086 2.597,-1.225 3.906,-1.355z"/>
   <path class="fil0" d="M82.83 101.6c0.867,-0.05 1.9,0.004 2.579,0.609 0.488,0.436 0.687,1.052 0.721,1.691 0.067,1.243 -0.294,2.623 -1.152,3.551 -1.24,1.339 -3.303,1.795 -5.051,1.871 -0.785,0.042 -1.758,0.039 -2.392,-0.484 -0.558,-0.459 -0.779,-1.139 -0.838,-1.839 -0.103,-1.233 0.139,-2.656 0.97,-3.611 1.256,-1.444 3.376,-1.676 5.163,-1.788z"/>
   <path class="fil0" d="M94.314 90.304c0.844,-0.1 1.838,-0.027 2.555,0.463 0.597,0.409 0.92,1.055 1.028,1.757 0.192,1.244 -0.15,2.659 -0.883,3.68 -1.045,1.455 -2.599,2.03 -4.298,2.321 -1.037,0.062 -2.105,0.099 -2.983,-0.562 -0.546,-0.411 -0.725,-1.202 -0.794,-1.847 -0.147,-1.364 0.159,-2.836 1.049,-3.908 1.078,-1.298 2.709,-1.758 4.326,-1.904z"/>
   <path class="fil0" d="M92.927 33.444c1.423,-0.128 2.781,0.062 4,0.856 1.038,0.677 1.779,1.67 2.036,2.898 0.208,0.997 0.137,2.16 -0.454,3.017 -0.596,0.863 -1.496,1.181 -2.477,1.382 -1.374,0.148 -2.766,-0.093 -3.943,-0.851 -0.065,-0.041 -0.128,-0.084 -0.191,-0.128 -0.063,-0.044 -0.124,-0.09 -0.185,-0.138 -0.06,-0.047 -0.119,-0.096 -0.177,-0.147 -0.058,-0.05 -0.115,-0.102 -0.17,-0.155 -0.055,-0.053 -0.109,-0.108 -0.162,-0.163 -0.052,-0.056 -0.104,-0.114 -0.153,-0.172 -0.05,-0.059 -0.098,-0.118 -0.145,-0.179 -0.047,-0.061 -0.092,-0.123 -0.136,-0.186 -0.044,-0.063 -0.086,-0.127 -0.126,-0.193 -0.041,-0.065 -0.079,-0.131 -0.117,-0.198 -0.037,-0.068 -0.072,-0.136 -0.106,-0.205 -0.034,-0.068 -0.066,-0.138 -0.096,-0.209 -0.03,-0.07 -0.059,-0.142 -0.086,-0.213 -0.027,-0.072 -0.051,-0.145 -0.074,-0.218 -0.024,-0.073 -0.045,-0.147 -0.064,-0.221 -0.02,-0.075 -0.037,-0.149 -0.053,-0.225 -0.207,-0.974 -0.128,-2.138 0.446,-2.974 0.582,-0.846 1.459,-1.204 2.433,-1.378z"/>
   <path class="fil0" d="M70.323 69.229c1.435,-0.21 3.269,0.017 4.508,0.811 0.81,0.519 1.391,1.268 1.58,2.223 0.173,0.875 0.007,1.777 -0.516,2.506 -0.873,1.216 -2.336,1.639 -3.739,1.855 -1.623,0.117 -3.327,-0.012 -4.689,-1 -0.733,-0.532 -1.249,-1.298 -1.377,-2.202 -0.008,-0.054 -0.014,-0.108 -0.019,-0.162 -0.005,-0.054 -0.008,-0.108 -0.01,-0.162 -0.003,-0.055 -0.003,-0.109 -0.003,-0.163 0,-0.054 0.002,-0.109 0.006,-0.163 0.003,-0.054 0.007,-0.108 0.013,-0.162 0.006,-0.054 0.013,-0.108 0.022,-0.162 0.009,-0.053 0.018,-0.107 0.03,-0.16 0.011,-0.053 0.023,-0.106 0.037,-0.158 0.014,-0.053 0.029,-0.105 0.046,-0.157 0.016,-0.052 0.034,-0.103 0.053,-0.154 0.019,-0.051 0.039,-0.101 0.061,-0.151 0.021,-0.05 0.044,-0.099 0.068,-0.148 0.024,-0.048 0.049,-0.097 0.075,-0.144 0.026,-0.048 0.054,-0.095 0.083,-0.141 0.028,-0.046 0.058,-0.091 0.089,-0.136 0.031,-0.044 0.063,-0.088 0.096,-0.131 0.866,-1.128 2.235,-1.566 3.586,-1.739z"/>
   <path class="fil0" d="M104.839 78.698c0.962,-0.099 2.111,-0.175 2.968,0.352 0.588,0.362 0.923,0.947 1.051,1.615 0.283,1.483 -0.102,3.5 -0.952,4.755 -0.834,1.231 -1.991,1.775 -3.41,2.04 -0.991,0.194 -2.354,0.215 -3.222,-0.355 -0.581,-0.381 -0.841,-1.026 -0.964,-1.686 -0.292,-1.569 0.006,-3.585 0.953,-4.898 0.825,-1.144 2.245,-1.606 3.576,-1.823z"/>
   <path class="fil0" d="M105.683 67.485c1.074,-0.064 2.206,-0.029 3.13,0.599 0.686,0.467 1.096,1.179 1.249,1.986 0.25,1.323 -0.053,2.848 -0.814,3.96 -0.862,1.258 -2.098,1.849 -3.558,2.128 -1.09,0.144 -2.306,0.103 -3.235,-0.557 -0.724,-0.515 -1.099,-1.311 -1.22,-2.174 -0.194,-1.375 0.044,-3.018 0.909,-4.136 0.881,-1.138 2.151,-1.645 3.539,-1.806z"/>
   <path class="fil0" d="M56.402 111.599c1.453,-0.223 4.266,-0.1 5.517,0.721 0.709,0.465 1.085,1.149 1.252,1.966 0.203,0.99 0.129,2.527 -0.452,3.37 -0.588,0.853 -1.53,1.078 -2.485,1.249 -1.715,0.195 -4.342,0.279 -5.82,-0.767 -0.697,-0.494 -1.045,-1.262 -1.173,-2.087 -0.159,-1.02 -0.15,-2.489 0.503,-3.333 0.636,-0.823 1.692,-0.997 2.658,-1.119z"/>
   <path class="fil0" d="M70.491 92.349c1.213,-0.117 2.684,0.148 3.717,0.817 0.051,0.032 0.101,0.066 0.15,0.1 0.049,0.035 0.097,0.071 0.145,0.109 0.047,0.037 0.093,0.076 0.138,0.115 0.045,0.04 0.089,0.081 0.132,0.123 0.044,0.042 0.085,0.085 0.126,0.13 0.041,0.044 0.081,0.089 0.119,0.135 0.039,0.047 0.076,0.094 0.112,0.142 0.036,0.048 0.071,0.098 0.104,0.148 0.033,0.05 0.066,0.101 0.096,0.152 0.031,0.052 0.061,0.105 0.089,0.158 0.028,0.053 0.054,0.107 0.08,0.162 0.025,0.054 0.049,0.109 0.071,0.165 0.023,0.056 0.043,0.113 0.063,0.17 0.019,0.057 0.037,0.114 0.054,0.172 0.016,0.058 0.031,0.116 0.045,0.175 0.013,0.058 0.025,0.117 0.036,0.177 0.193,1.079 -0.045,2.232 -0.704,3.115 -0.889,1.19 -2.251,1.677 -3.665,1.884 -1.451,0.117 -2.959,-0.009 -4.151,-0.932 -0.815,-0.631 -1.296,-1.553 -1.399,-2.573 -0.107,-1.072 0.174,-2.152 0.871,-2.984 0.954,-1.14 2.355,-1.515 3.771,-1.66z"/>
   <path class="fil0" d="M95.513 56.12c1.282,0.004 2.494,0.318 3.484,1.162 0.904,0.773 1.398,1.855 1.483,3.031 0.084,1.164 -0.224,2.381 -1.016,3.262 -0.849,0.945 -2.002,1.318 -3.229,1.405 -1.313,0.008 -2.534,-0.254 -3.556,-1.129 -0.056,-0.047 -0.11,-0.095 -0.163,-0.145 -0.053,-0.05 -0.105,-0.102 -0.156,-0.154 -0.05,-0.053 -0.1,-0.106 -0.147,-0.161 -0.048,-0.055 -0.095,-0.112 -0.14,-0.169 -0.045,-0.057 -0.088,-0.116 -0.13,-0.175 -0.043,-0.06 -0.083,-0.12 -0.122,-0.182 -0.039,-0.061 -0.077,-0.124 -0.113,-0.187 -0.036,-0.064 -0.07,-0.128 -0.103,-0.193 -0.033,-0.065 -0.064,-0.131 -0.093,-0.198 -0.03,-0.066 -0.058,-0.134 -0.084,-0.202 -0.026,-0.068 -0.05,-0.136 -0.073,-0.206 -0.023,-0.069 -0.044,-0.139 -0.063,-0.209 -0.019,-0.07 -0.036,-0.141 -0.052,-0.212 -0.016,-0.072 -0.03,-0.143 -0.042,-0.215 -0.012,-0.072 -0.022,-0.144 -0.03,-0.217 -0.009,-0.072 -0.016,-0.145 -0.02,-0.217 -0.089,-1.187 0.222,-2.379 1.032,-3.277 0.909,-1.01 2.033,-1.321 3.333,-1.412z"/>
   <path class="fil0" d="M114.258 45.657c1.078,-0.106 2.37,0.165 3.236,0.824 0.996,0.759 1.421,1.951 1.582,3.149 0.186,1.389 0.277,3.55 -0.65,4.711 -0.621,0.778 -1.512,0.943 -2.442,1.051 -1.103,0.031 -2.204,-0.1 -3.133,-0.749 -1.045,-0.731 -1.516,-1.924 -1.702,-3.141 -0.227,-1.49 -0.242,-3.577 0.732,-4.831 0.593,-0.763 1.473,-0.923 2.377,-1.014z"/>
   <path class="fil0" d="M114.792 56.716c1.123,-0.12 2.416,0.006 3.374,0.65 0.897,0.604 1.324,1.579 1.498,2.612 0.246,1.456 0.231,3.653 -0.691,4.893 -0.593,0.796 -1.376,1.092 -2.329,1.212 -1.204,0.178 -2.671,0.126 -3.702,-0.591 -0.791,-0.551 -1.16,-1.495 -1.327,-2.411 -0.284,-1.558 -0.256,-3.789 0.707,-5.126 0.595,-0.826 1.516,-1.089 2.47,-1.239z"/>
   <path class="fil0" d="M91.473 22.233c1.483,-0.092 3.051,0.142 4.318,0.962 1.079,0.698 1.703,1.725 1.968,2.968 0.25,1.172 0.278,2.712 -0.431,3.735 -0.507,0.732 -1.217,0.968 -2.052,1.106 -1.614,0.171 -3.568,-0.128 -4.88,-1.144 -1.007,-0.781 -1.563,-1.95 -1.722,-3.197 -0.143,-1.127 -0.11,-2.499 0.638,-3.418 0.565,-0.694 1.311,-0.912 2.161,-1.012z"/>
   <path class="fil0" d="M69.623 102.506c1.383,-0.128 3.275,-0.181 4.433,0.726 0.655,0.513 0.964,1.267 1.059,2.075 0.134,1.139 -0.107,2.487 -0.839,3.387 -0.865,1.063 -2.238,1.524 -3.56,1.65 -1.336,0.212 -3.342,0.273 -4.484,-0.581 -0.658,-0.492 -0.965,-1.318 -1.07,-2.108 -0.167,-1.246 0.042,-2.719 0.854,-3.717 0.843,-1.037 2.363,-1.278 3.607,-1.432z"/>
   <path class="fil0" d="M67.229 0.854c1.648,-0.217 3.899,0.038 5.357,0.886 0.933,0.544 1.548,1.355 1.811,2.403 0.275,1.093 0.286,2.507 -0.325,3.487 -0.468,0.751 -1.128,1.019 -1.947,1.213 -1.686,0.316 -4.294,0.167 -5.766,-0.821 -0.93,-0.624 -1.453,-1.619 -1.648,-2.7 -0.198,-1.099 -0.171,-2.528 0.516,-3.456 0.514,-0.696 1.192,-0.889 2.002,-1.012z"/>
   <path class="fil0" d="M47.915 1.09c0.959,-0.088 2.226,-0.028 3.026,0.549 0.673,0.485 0.967,1.267 1.069,2.065 0.161,1.265 0.034,2.734 -0.794,3.759 -1.057,1.31 -3.027,1.639 -4.603,1.78 -1.074,0.056 -2.455,0.15 -3.351,-0.546 -0.7,-0.543 -0.969,-1.426 -1.05,-2.276 -0.123,-1.275 0.054,-2.706 0.924,-3.705 1.102,-1.262 3.221,-1.512 4.779,-1.626z"/>
   <path class="fil0" d="M114.629 66.651c0.984,-0.128 2.256,-0.079 3.113,0.465 0.653,0.414 0.997,1.063 1.157,1.803 0.374,1.729 0.054,4.388 -0.974,5.865 -0.714,1.026 -1.742,1.371 -2.906,1.592 -1.006,0.101 -2.284,0.155 -3.137,-0.477 -0.713,-0.529 -1.026,-1.465 -1.154,-2.312 -0.242,-1.613 -0.116,-4.221 0.937,-5.561 0.729,-0.929 1.85,-1.236 2.964,-1.375z"/>
   <path class="fil0" d="M103.036 33.601c1.387,-0.163 3.045,0.114 4.197,0.939 1.022,0.731 1.523,1.856 1.727,3.06 0.204,1.205 0.272,3.138 -0.504,4.156 -0.571,0.749 -1.394,0.918 -2.267,1.059 -1.438,0.085 -2.976,-0.037 -4.192,-0.885 -1.041,-0.726 -1.571,-1.842 -1.774,-3.061 -0.206,-1.238 -0.233,-3.102 0.553,-4.157 0.574,-0.772 1.354,-0.988 2.26,-1.111z"/>
   <path class="fil0" d="M57.488 80.818c1.431,-0.104 2.806,0.014 4.042,0.805 0.967,0.619 1.679,1.568 1.907,2.703 0.225,1.114 0.007,2.352 -0.625,3.298 -0.783,1.171 -1.948,1.638 -3.269,1.891 -1.421,0.253 -3.063,0.043 -4.287,-0.754 -0.059,-0.037 -0.116,-0.076 -0.172,-0.116 -0.056,-0.04 -0.111,-0.082 -0.166,-0.125 -0.054,-0.043 -0.107,-0.087 -0.159,-0.133 -0.052,-0.046 -0.102,-0.093 -0.152,-0.141 -0.05,-0.048 -0.098,-0.097 -0.145,-0.148 -0.047,-0.05 -0.093,-0.102 -0.138,-0.155 -0.044,-0.053 -0.088,-0.107 -0.129,-0.162 -0.042,-0.055 -0.083,-0.111 -0.122,-0.168 -0.039,-0.057 -0.077,-0.115 -0.113,-0.174 -0.036,-0.059 -0.071,-0.119 -0.104,-0.179 -0.033,-0.061 -0.065,-0.123 -0.095,-0.185 -0.03,-0.062 -0.059,-0.125 -0.086,-0.189 -0.027,-0.063 -0.052,-0.128 -0.076,-0.193 -0.023,-0.065 -0.046,-0.13 -0.066,-0.196 -0.021,-0.066 -0.04,-0.133 -0.057,-0.2 -0.017,-0.067 -0.032,-0.134 -0.046,-0.202 -0.24,-1.149 -0.028,-2.394 0.642,-3.366 0.814,-1.179 2.062,-1.681 3.416,-1.911z"/>
   <path class="fil0" d="M57.548 0.028c1.432,-0.072 3.333,-0.071 4.547,0.817 0.828,0.605 1.192,1.652 1.318,2.634 0.154,1.199 0.046,2.701 -0.75,3.668 -0.844,1.026 -2.234,1.195 -3.468,1.312 -1.464,0.14 -3.527,0.096 -4.729,-0.866 -0.793,-0.634 -1.121,-1.578 -1.224,-2.557 -0.12,-1.148 -0.025,-2.826 0.757,-3.738 0.844,-0.984 2.34,-1.173 3.549,-1.27z"/>
   <path class="fil0" d="M68.921 10.034c1.535,-0.158 3.595,0.203 4.83,1.18 0.924,0.732 1.368,1.761 1.484,2.909 0.12,1.183 0.017,2.601 -0.79,3.54 -0.707,0.822 -1.72,1.059 -2.751,1.141 -1.611,0.155 -3.705,0.038 -5.033,-1.001 -0.902,-0.706 -1.313,-1.767 -1.45,-2.873 -0.149,-1.211 -0.071,-2.755 0.738,-3.739 0.749,-0.911 1.876,-1.062 2.972,-1.157z"/>
   <path class="fil0" d="M80.972 21.025c1.533,-0.106 3.513,0.193 4.741,1.187 0.963,0.78 1.37,1.925 1.484,3.12 0.116,1.223 -0.003,2.67 -0.841,3.636 -0.738,0.85 -1.767,1.068 -2.831,1.154 -1.501,0.137 -3.541,-0.139 -4.749,-1.114 -0.915,-0.738 -1.326,-1.872 -1.451,-3.008 -0.138,-1.247 -0.053,-2.852 0.785,-3.854 0.732,-0.875 1.794,-1.044 2.862,-1.121z"/>
   <path class="fil0" d="M82.425 43.827c1.468,-0.087 2.835,-0.069 4.138,0.705 0.064,0.037 0.127,0.077 0.189,0.118 0.062,0.041 0.123,0.083 0.183,0.127 0.06,0.044 0.119,0.09 0.177,0.137 0.058,0.047 0.114,0.095 0.169,0.145 0.056,0.05 0.109,0.101 0.162,0.154 0.053,0.052 0.104,0.106 0.154,0.161 0.05,0.055 0.098,0.112 0.145,0.169 0.048,0.058 0.093,0.117 0.137,0.177 0.044,0.06 0.087,0.121 0.128,0.183 0.041,0.062 0.081,0.125 0.118,0.189 0.038,0.064 0.074,0.129 0.109,0.195 0.035,0.066 0.067,0.133 0.099,0.2 0.031,0.068 0.06,0.136 0.088,0.205 0.028,0.069 0.054,0.139 0.078,0.209 0.024,0.07 0.047,0.142 0.067,0.213 0.021,0.072 0.04,0.143 0.057,0.216 0.293,1.219 0.168,2.661 -0.513,3.732 -0.71,1.117 -1.796,1.606 -3.029,1.893 -1.499,0.247 -3.162,0.066 -4.449,-0.794 -1.049,-0.702 -1.734,-1.772 -1.958,-3.011 -0.221,-1.225 -0.038,-2.609 0.699,-3.635 0.757,-1.053 1.83,-1.47 3.052,-1.688z"/>
   <path class="fil0" d="M33.759 20.793c1.329,-0.213 3.226,-0.086 4.359,0.703 0.806,0.56 1.244,1.412 1.421,2.357 0.256,1.366 0.124,3.029 -0.7,4.19 -0.78,1.097 -2.002,1.438 -3.254,1.653 -1.49,0.115 -3.313,0.183 -4.602,-0.71 -0.798,-0.554 -1.188,-1.405 -1.35,-2.338 -0.236,-1.37 -0.149,-3.076 0.704,-4.225 0.817,-1.101 2.132,-1.462 3.422,-1.63z"/>
   <path class="fil0" d="M32.01 90.67c1.699,-0.109 3.554,-0.073 5.065,0.815 1.024,0.602 1.676,1.533 1.957,2.678 0.313,1.273 0.326,3.003 -0.406,4.138 -0.526,0.816 -1.292,1.145 -2.199,1.35 -1.729,0.27 -3.901,0.037 -5.406,-0.913 -1.003,-0.633 -1.622,-1.613 -1.863,-2.759 -0.259,-1.233 -0.276,-2.937 0.454,-4.007 0.583,-0.855 1.428,-1.134 2.398,-1.302z"/>
   <path class="fil0" d="M93.982 79.46c1.259,-0.174 2.966,-0.152 4.053,0.579 0.724,0.486 1.102,1.238 1.252,2.08 0.271,1.514 0.102,3.716 -0.821,5 -0.855,1.188 -2.148,1.556 -3.514,1.777 -1.271,0.166 -2.97,0.256 -4.055,-0.553 -0.768,-0.573 -1.128,-1.519 -1.266,-2.437 -0.234,-1.55 -0.062,-3.489 0.919,-4.77 0.857,-1.12 2.1,-1.499 3.432,-1.676z"/>
   <path class="fil0" d="M105.239 56.416c1.31,-0.159 2.916,-0.09 4.04,0.671 0.885,0.599 1.321,1.542 1.52,2.561 0.31,1.585 0.279,3.771 -0.688,5.137 -0.736,1.041 -1.755,1.312 -2.936,1.518 -1.378,0.158 -2.994,0.117 -4.159,-0.734 -0.842,-0.616 -1.248,-1.582 -1.417,-2.58 -0.267,-1.574 -0.218,-3.792 0.772,-5.132 0.707,-0.957 1.748,-1.28 2.868,-1.441z"/>
   <path class="fil0" d="M82.708 91.063c1.23,-0.09 2.701,-0.052 3.706,0.757 0.761,0.612 1.067,1.564 1.161,2.504 0.147,1.461 -0.049,3.225 -1.029,4.387 -1.002,1.189 -2.643,1.534 -4.117,1.658 -1.294,0.116 -2.793,0.134 -3.855,-0.739 -0.791,-0.649 -1.098,-1.661 -1.185,-2.646 -0.129,-1.474 0.068,-3.178 1.084,-4.327 1.081,-1.222 2.695,-1.487 4.235,-1.594z"/>
   <path class="fil0" d="M94.044 43.911c1.443,-0.206 3.313,0.025 4.525,0.883 1.002,0.71 1.499,1.787 1.686,2.967 0.231,1.461 0.169,3.349 -0.754,4.58 -0.683,0.91 -1.655,1.229 -2.732,1.395 -1.532,0.237 -3.494,0.1 -4.776,-0.859 -0.965,-0.722 -1.418,-1.864 -1.587,-3.021 -0.213,-1.461 -0.117,-3.401 0.824,-4.616 0.702,-0.905 1.739,-1.174 2.814,-1.329z"/>
   <path class="fil0" d="M69.117 20.185c1.662,-0.161 3.656,-0.071 5.069,0.929 0.96,0.68 1.464,1.651 1.656,2.787 0.227,1.336 0.157,3.093 -0.672,4.221 -0.678,0.922 -1.649,1.237 -2.726,1.416 -1.644,0.239 -3.752,0.174 -5.192,-0.756 -0.943,-0.609 -1.488,-1.619 -1.702,-2.699 -0.275,-1.392 -0.169,-3.263 0.675,-4.451 0.696,-0.978 1.769,-1.282 2.892,-1.447z"/>
   <path class="fil0" d="M45.253 20.035c1.443,-0.214 3.425,-0.035 4.65,0.82 0.923,0.645 1.401,1.619 1.567,2.708 0.207,1.362 0.116,3.191 -0.756,4.322 -0.841,1.089 -2.201,1.414 -3.495,1.567 -0.023,0.005 -0.045,0.011 -0.067,0.014 -1.406,0.178 -3.372,0.063 -4.565,-0.777 -0.915,-0.644 -1.392,-1.721 -1.564,-2.799 -0.22,-1.375 -0.1,-3.11 0.762,-4.26 0.835,-1.115 2.165,-1.423 3.468,-1.595z"/>
   <path class="fil0" d="M82.614 68.545c1.542,-0.104 3.251,-0.174 4.614,0.687 0.866,0.547 1.383,1.418 1.602,2.401 0.337,1.52 0.211,3.571 -0.682,4.894 -0.78,1.154 -2.018,1.493 -3.301,1.744 -1.539,0.198 -3.349,0.16 -4.662,-0.782 -0.953,-0.685 -1.384,-1.776 -1.548,-2.899 -0.216,-1.494 -0.079,-3.251 0.875,-4.483 0.79,-1.019 1.875,-1.402 3.102,-1.562z"/>
   <path class="fil0" d="M95.23 67.642c1.189,-0.069 2.72,0.083 3.697,0.825 0.785,0.595 1.135,1.507 1.276,2.453 0.242,1.614 0.133,3.84 -0.913,5.181 -0.952,1.221 -2.342,1.494 -3.787,1.663 -1.342,0.054 -2.918,0.026 -4.008,-0.882 -0.859,-0.715 -1.188,-1.924 -1.294,-2.996 -0.155,-1.566 0.045,-3.552 1.115,-4.793 0.966,-1.12 2.527,-1.349 3.914,-1.451z"/>
   <path class="fil0" d="M81.74 31.709c1.52,-0.219 3.505,0.051 4.772,0.973 1.033,0.75 1.538,1.893 1.715,3.122 0.203,1.404 0.103,3.236 -0.796,4.397 -0.773,0.999 -1.89,1.249 -3.071,1.393 -1.562,0.139 -3.612,0.01 -4.925,-0.952 -0.996,-0.73 -1.465,-1.975 -1.623,-3.16 -0.19,-1.427 -0.069,-3.269 0.858,-4.44 0.752,-0.948 1.934,-1.196 3.07,-1.333z"/>
   <path class="fil0" d="M82.476 79.917c1.371,-0.193 3.282,-0.086 4.441,0.752 0.82,0.592 1.228,1.497 1.389,2.471 0.257,1.549 0.156,3.656 -0.818,4.959 -0.848,1.135 -2.106,1.456 -3.431,1.633 -1.582,0.105 -3.477,0.242 -4.826,-0.767 -0.791,-0.592 -1.148,-1.612 -1.286,-2.557 -0.23,-1.58 -0.086,-3.626 0.936,-4.928 0.848,-1.082 2.302,-1.416 3.595,-1.563z"/>
   <path class="fil0" d="M58.035 91.518c1.555,-0.04 3.282,0.109 4.48,1.219 0.878,0.815 1.197,1.98 1.255,3.139 0.069,1.365 -0.153,2.961 -1.119,3.998 -1.041,1.118 -2.574,1.362 -4.024,1.42 -1.363,0.063 -3.131,-0.063 -4.226,-0.976 -0.978,-0.815 -1.398,-2.096 -1.5,-3.326 -0.112,-1.364 0.064,-3.001 0.999,-4.07 1.025,-1.17 2.686,-1.334 4.135,-1.404z"/>
   <path class="fil0" d="M69.995 31.408c1.595,-0.142 3.544,0.04 4.847,1.066 0.951,0.749 1.372,1.85 1.513,3.016 0.174,1.44 0.062,3.24 -0.9,4.405 -0.832,1.006 -2.084,1.31 -3.323,1.422 -1.581,0.157 -3.777,0.031 -5.06,-1.022 -0.937,-0.769 -1.333,-1.941 -1.454,-3.108 -0.151,-1.459 -0.023,-3.199 0.962,-4.368 0.859,-1.021 2.156,-1.285 3.415,-1.411z"/>
   <path class="fil0" d="M70.208 80.146c1.425,-0.196 3.445,-0.021 4.66,0.8 0.922,0.622 1.376,1.592 1.564,2.657 0.276,1.564 0.195,3.67 -0.784,4.993 -0.891,1.206 -2.335,1.46 -3.72,1.671 -1.614,0.138 -3.579,0.087 -4.891,-1.001 -0.897,-0.742 -1.247,-1.876 -1.368,-2.993 -0.163,-1.511 -0.034,-3.382 0.981,-4.599 0.91,-1.091 2.214,-1.401 3.558,-1.528z"/>
   <path class="fil0" d="M57.097 67.792c1.508,-0.185 3.579,-0.001 4.858,0.897 0.924,0.649 1.443,1.678 1.628,2.77 0.265,1.571 0.129,3.766 -0.862,5.082 -0.86,1.145 -2.189,1.473 -3.527,1.673 -1.68,0.06 -3.691,0.129 -5.104,-0.955 -0.949,-0.729 -1.396,-2.001 -1.534,-3.152 -0.186,-1.553 -0.093,-3.598 0.943,-4.864 0.865,-1.058 2.314,-1.329 3.598,-1.451z"/>
   <path class="fil0" d="M56.762 55.356c1.61,-0.215 3.815,-0.111 5.187,0.846 0.934,0.651 1.439,1.683 1.644,2.776 0.296,1.581 0.25,3.777 -0.718,5.136 -0.854,1.201 -2.085,1.512 -3.453,1.734 -1.64,0.158 -3.772,0.177 -5.185,-0.816 -0.975,-0.686 -1.444,-1.869 -1.61,-3.011 -0.243,-1.672 -0.169,-3.753 0.911,-5.145 0.778,-1.004 2.023,-1.353 3.224,-1.52z"/>
   <path class="fil0" d="M17.887 32.168c3.163,-0.165 6.336,0.546 9.212,1.851 5.55,2.519 10.98,7.959 13.137,13.718 0.13,-0.321 0.258,-0.645 0.434,-0.945 0.635,-1.08 1.653,-1.765 2.862,-2.052 1.548,-0.368 3.358,-0.211 4.727,0.641 0.996,0.619 1.736,1.58 1.979,2.739 0.234,1.114 0.059,2.33 -0.573,3.286 -0.677,1.023 -1.758,1.648 -2.94,1.894 -1.811,0.378 -3.507,-0.091 -5.032,-1.075 0.344,1.145 0.524,2.313 0.603,3.504 1.81,-0.549 3.95,-0.719 5.78,-0.159 1.117,0.342 2.044,1.02 2.593,2.073 0.768,1.473 0.735,3.8 0.21,5.343 -0.338,0.996 -0.985,1.775 -1.935,2.239 -1.999,0.979 -4.586,0.755 -6.631,0.073 -0.213,1.116 -0.447,2.216 -0.8,3.298 1.558,-0.851 3.452,-0.986 5.193,-0.81 1.307,0.133 2.695,0.547 3.541,1.621 1.03,1.308 1.092,3.264 0.875,4.843 -0.162,1.179 -0.588,2.292 -1.59,3.015 -1.571,1.136 -4.016,1.092 -5.836,0.79 -0.878,-0.158 -1.789,-0.529 -2.425,-1.167 -1.077,-1.079 -1.274,-2.691 -1.301,-4.139 -0.234,0.505 -0.484,1.001 -0.751,1.489 -0.267,0.487 -0.55,0.966 -0.849,1.434 -0.299,0.469 -0.613,0.927 -0.943,1.375 -0.33,0.447 -0.675,0.883 -1.034,1.308 -3.959,4.679 -9.616,8.086 -15.801,8.572 -4.499,0.353 -8.833,-1.012 -12.262,-3.955 -5.567,-4.779 -7.682,-12.681 -8.197,-19.734 -0.616,-8.428 0.805,-19.027 6.547,-25.639 2.922,-3.365 6.796,-5.119 11.207,-5.431z"/>
  </g>
 </g>
</svg>
